<svg width="188" height="21" viewBox="0 0 188 21" fill="none" xmlns="http://www.w3.org/2000/svg">
<path d="M80.2402 20.4208V0.50211H87.253C88.6158 0.50211 89.8177 0.777178 90.8588 1.32731C91.8998 1.87745 92.7137 2.64574 93.3005 3.63219C93.8872 4.59967 94.1806 5.7284 94.1806 7.01837C94.1806 8.2704 93.9061 9.38964 93.3572 10.3761C92.8083 11.3625 92.0417 12.1403 91.0575 12.7094C90.0922 13.2596 88.966 13.5346 87.6789 13.5346H83.5337V20.4208H80.2402ZM83.5337 10.4899H87.6221C88.5685 10.4899 89.3445 10.1674 89.9502 9.52244C90.5559 8.87745 90.8588 8.04276 90.8588 7.01837C90.8588 5.97501 90.5181 5.13084 89.8367 4.48585C89.1553 3.84086 88.2751 3.51837 87.1962 3.51837H83.5337V10.4899Z" fill="#3309DC"/>
<path d="M96.5016 20.4208V0.50211H99.6815V20.4208H96.5016Z" fill="#3309DC"/>
<path d="M111.871 20.4208L111.729 17.746V13.1078C111.729 12.1403 111.625 11.3341 111.417 10.6891C111.227 10.0251 110.906 9.52244 110.451 9.18097C110.016 8.82054 109.429 8.64032 108.691 8.64032C108.01 8.64032 107.413 8.7826 106.902 9.06715C106.391 9.3517 105.956 9.7975 105.596 10.4045L102.814 9.38016C103.117 8.75414 103.514 8.17555 104.006 7.64439C104.517 7.09425 105.152 6.65794 105.909 6.33544C106.685 6.01295 107.612 5.8517 108.691 5.8517C110.073 5.8517 111.227 6.12677 112.155 6.67691C113.082 7.20807 113.764 7.97637 114.199 8.98178C114.653 9.98721 114.88 11.2013 114.88 12.6241L114.795 20.4208H111.871ZM107.782 20.7623C106.079 20.7623 104.754 20.3829 103.808 19.6241C102.88 18.8653 102.416 17.7934 102.416 16.4086C102.416 14.9289 102.909 13.8002 103.893 13.0224C104.896 12.2447 106.287 11.8558 108.066 11.8558H111.871V14.3029H109.088C107.82 14.3029 106.931 14.4831 106.42 14.8436C105.909 15.185 105.653 15.6783 105.653 16.3232C105.653 16.8734 105.871 17.3097 106.306 17.6322C106.76 17.9357 107.385 18.0875 108.18 18.0875C108.899 18.0875 109.524 17.9262 110.054 17.6037C110.584 17.2812 110.991 16.8544 111.275 16.3232C111.578 15.7921 111.729 15.1945 111.729 14.5306H112.666C112.666 16.4655 112.278 17.9926 111.502 19.1119C110.726 20.2121 109.486 20.7623 107.782 20.7623Z" fill="#3309DC"/>
<path d="M123.75 20.7623C122.255 20.7623 121.11 20.3924 120.315 19.6525C119.539 18.8937 119.151 17.8124 119.151 16.4086V1.75414H122.302V15.8111C122.302 16.475 122.454 16.9777 122.757 17.3192C123.078 17.6606 123.542 17.8314 124.148 17.8314C124.337 17.8314 124.545 17.7934 124.773 17.7176C125 17.6417 125.255 17.4994 125.539 17.2907L126.703 19.7094C126.211 20.0509 125.719 20.307 125.227 20.4777C124.735 20.6674 124.243 20.7623 123.75 20.7623ZM116.794 8.92488V6.19317H126.135V8.92488H116.794Z" fill="#3309DC"/>
<path d="M130.666 20.4208V4.68504C130.666 3.18639 131.035 2.0387 131.773 1.24195C132.53 0.42623 133.666 0.0183716 135.18 0.0183716C135.672 0.0183716 136.193 0.103737 136.742 0.274469C137.31 0.42623 137.849 0.634902 138.36 0.900484L137.196 3.26227C136.837 3.09154 136.515 2.96823 136.231 2.89235C135.966 2.81647 135.729 2.77853 135.521 2.77853C134.953 2.77853 134.527 2.96824 134.243 3.34764C133.978 3.70807 133.846 4.30563 133.846 5.14032V20.4208H130.666ZM128.224 8.81105V6.19317H137.565V8.81105H128.224Z" fill="#3309DC"/>
<path d="M146.423 20.7623C145.004 20.7623 143.736 20.4493 142.619 19.8232C141.521 19.1783 140.66 18.2961 140.035 17.1769C139.411 16.0577 139.098 14.7677 139.098 13.307C139.098 11.8463 139.401 10.5563 140.007 9.43707C140.632 8.31783 141.493 7.4452 142.591 6.81918C143.688 6.1742 144.947 5.8517 146.367 5.8517C147.786 5.8517 149.045 6.1742 150.143 6.81918C151.241 7.4452 152.092 8.31783 152.698 9.43707C153.323 10.5563 153.635 11.8463 153.635 13.307C153.635 14.7677 153.332 16.0577 152.726 17.1769C152.121 18.2961 151.269 19.1783 150.171 19.8232C149.073 20.4493 147.824 20.7623 146.423 20.7623ZM146.423 17.8314C147.2 17.8314 147.89 17.6417 148.496 17.2623C149.102 16.8639 149.575 16.3327 149.916 15.6688C150.256 14.9858 150.427 14.1986 150.427 13.307C150.427 12.4154 150.247 11.6376 149.887 10.9737C149.547 10.2907 149.073 9.75956 148.468 9.38016C147.862 8.98179 147.162 8.7826 146.367 8.7826C145.572 8.7826 144.871 8.9723 144.266 9.3517C143.66 9.73111 143.187 10.2623 142.846 10.9452C142.505 11.6281 142.335 12.4154 142.335 13.307C142.335 14.1986 142.505 14.9858 142.846 15.6688C143.206 16.3327 143.688 16.8639 144.294 17.2623C144.919 17.6417 145.628 17.8314 146.423 17.8314Z" fill="#3309DC"/>
<path d="M158.492 12.8517C158.492 11.3151 158.785 10.0536 159.372 9.06715C159.958 8.0807 160.716 7.35035 161.643 6.87609C162.589 6.38287 163.574 6.13626 164.596 6.13626V9.18097C163.725 9.18097 162.902 9.30428 162.126 9.55089C161.369 9.77853 160.753 10.1579 160.28 10.6891C159.807 11.2203 159.57 11.9222 159.57 12.7948L158.492 12.8517ZM156.391 20.4208V6.19317H159.57V20.4208H156.391Z" fill="#3309DC"/>
<path d="M166.705 20.4208V6.19317H169.686L169.828 8.09967C170.263 7.35983 170.822 6.80021 171.503 6.42081C172.184 6.04141 172.96 5.8517 173.831 5.8517C174.967 5.8517 175.932 6.1078 176.727 6.62C177.522 7.13219 178.099 7.90997 178.459 8.95333C178.875 7.94791 179.462 7.17962 180.219 6.64845C180.976 6.11729 181.866 5.8517 182.888 5.8517C184.535 5.8517 185.803 6.38287 186.693 7.4452C187.582 8.48856 188.017 10.101 187.999 12.2826V20.4208H184.847V13.1363C184.847 11.998 184.724 11.1254 184.478 10.5184C184.232 9.89235 183.901 9.45604 183.484 9.20943C183.068 8.96282 182.585 8.83951 182.036 8.83951C181.052 8.82054 180.285 9.17149 179.737 9.89235C179.207 10.6132 178.942 11.6471 178.942 12.994V20.4208H175.762V13.1363C175.762 11.998 175.639 11.1254 175.393 10.5184C175.165 9.89235 174.844 9.45604 174.427 9.20943C174.011 8.96282 173.528 8.83951 172.979 8.83951C171.995 8.82054 171.228 9.17149 170.68 9.89235C170.15 10.6132 169.885 11.6471 169.885 12.994V20.4208H166.705Z" fill="#3309DC"/>
<path d="M38.6374 20.6585V3.7561H32.5332V0.739836H48.0351V3.7561H41.9309V20.6585H38.6374Z" fill="#262F40"/>
<path d="M51.1085 13.0894C51.1085 11.5528 51.4019 10.2913 51.9887 9.30488C52.5754 8.31843 53.3325 7.58808 54.26 7.11382C55.2064 6.6206 56.1907 6.37398 57.2128 6.37398V9.4187C56.3421 9.4187 55.5187 9.542 54.7427 9.78862C53.9856 10.0163 53.3704 10.3957 52.8972 10.9268C52.424 11.458 52.1874 12.1599 52.1874 13.0325L51.1085 13.0894ZM49.0075 20.6585V6.43089H52.1874V20.6585H49.0075Z" fill="#262F40"/>
<path d="M59.5205 20.6585V6.43089H62.672V20.6585H59.5205ZM61.1104 3.72764C60.5994 3.72764 60.1546 3.54743 59.776 3.18699C59.4164 2.80759 59.2366 2.36179 59.2366 1.84959C59.2366 1.3374 59.4164 0.901084 59.776 0.54065C60.1546 0.180217 60.5994 0 61.1104 0C61.6215 0 62.0568 0.180217 62.4164 0.54065C62.795 0.901084 62.9843 1.3374 62.9843 1.84959C62.9843 2.36179 62.795 2.80759 62.4164 3.18699C62.0568 3.54743 61.6215 3.72764 61.1104 3.72764Z" fill="#262F40"/>
<path d="M71.587 21C70.6406 21 69.7699 20.8577 68.9749 20.5732C68.18 20.2886 67.4986 19.8902 66.9307 19.378C66.3629 18.8469 65.9276 18.2304 65.6247 17.5285L68.3787 16.3049C68.6626 16.836 69.079 17.2818 69.6279 17.6423C70.1958 18.0027 70.8204 18.1829 71.5018 18.1829C72.24 18.1829 72.8268 18.0596 73.2621 17.813C73.7164 17.5474 73.9435 17.187 73.9435 16.7317C73.9435 16.2954 73.7731 15.9634 73.4324 15.7358C73.0917 15.4892 72.6091 15.29 71.9845 15.1382L70.6501 14.7683C69.3062 14.4268 68.2557 13.8862 67.4986 13.1463C66.7414 12.3875 66.3629 11.5244 66.3629 10.5569C66.3629 9.13415 66.8172 8.03388 67.7257 7.2561C68.6532 6.47832 69.9781 6.08943 71.7006 6.08943C72.5712 6.08943 73.3662 6.22222 74.0855 6.4878C74.8236 6.73442 75.4577 7.09485 75.9877 7.56911C76.5177 8.02439 76.8868 8.56504 77.095 9.19106L74.4545 10.3862C74.2653 9.91192 73.9056 9.55149 73.3757 9.30488C72.8457 9.0393 72.2589 8.9065 71.6154 8.9065C70.9718 8.9065 70.4702 9.04878 70.1106 9.33333C69.751 9.59892 69.5712 9.97832 69.5712 10.4715C69.5712 10.7561 69.732 11.0217 70.0538 11.2683C70.3756 11.4959 70.8393 11.6856 71.445 11.8374L73.1201 12.2358C74.0476 12.4634 74.8047 12.8238 75.3915 13.3171C75.9782 13.7913 76.4136 14.332 76.6975 14.939C76.9814 15.5271 77.1234 16.1247 77.1234 16.7317C77.1234 17.5854 76.8773 18.3347 76.3852 18.9797C75.912 19.6247 75.259 20.1274 74.4262 20.4878C73.5933 20.8293 72.6469 21 71.587 21Z" fill="#262F40"/>
<path d="M20.1905 0.452667H0V3.80566H14.4268L0 18.1325V20.5033H2.38786L16.8141 6.17705V20.5032H20.1905V0.452667Z" fill="#3309DC"/>
</svg>
