<svg width="215" height="24" viewBox="0 0 215 24" fill="none" xmlns="http://www.w3.org/2000/svg">
<path d="M91.7031 23.3381V0.57384H99.7177C101.275 0.57384 102.649 0.888204 103.839 1.51693C105.028 2.14566 105.959 3.02371 106.629 4.15108C107.3 5.25677 107.635 6.54674 107.635 8.02099C107.635 9.45189 107.321 10.731 106.694 11.8584C106.067 12.9858 105.191 13.8747 104.066 14.5251C102.962 15.1538 101.675 15.4681 100.204 15.4681H95.4671V23.3381H91.7031ZM95.4671 11.9885H100.14C101.221 11.9885 102.108 11.6199 102.8 10.8828C103.492 10.1457 103.839 9.19173 103.839 8.02099C103.839 6.82858 103.449 5.86381 102.67 5.12669C101.892 4.38956 100.886 4.02099 99.6528 4.02099H95.4671V11.9885Z" fill="white"/>
<path d="M110.288 23.3381V0.57384H113.922V23.3381H110.288Z" fill="white"/>
<path d="M127.852 23.3381L127.69 20.2812V14.9803C127.69 13.8747 127.571 12.9532 127.333 12.2161C127.117 11.4573 126.749 10.8828 126.23 10.4925C125.733 10.0806 125.062 9.87465 124.218 9.87465C123.44 9.87465 122.758 10.0373 122.174 10.3625C121.59 10.6877 121.092 11.1971 120.681 11.8909L117.502 10.7202C117.848 10.0047 118.302 9.34349 118.864 8.73644C119.448 8.10771 120.173 7.60907 121.038 7.24051C121.925 6.87194 122.985 6.68766 124.218 6.68766C125.797 6.68766 127.117 7.00202 128.177 7.63075C129.237 8.2378 130.016 9.11584 130.513 10.2649C131.032 11.4139 131.292 12.8015 131.292 14.4275L131.195 23.3381H127.852ZM123.18 23.7283C121.233 23.7283 119.719 23.2947 118.637 22.4275C117.577 21.5603 117.047 20.3354 117.047 18.7527C117.047 17.0616 117.61 15.7717 118.735 14.8828C119.881 13.9939 121.471 13.5494 123.504 13.5494H127.852V16.3462H124.673C123.223 16.3462 122.207 16.5522 121.622 16.9641C121.038 17.3543 120.746 17.918 120.746 18.6551C120.746 19.2839 120.995 19.7825 121.493 20.1511C122.012 20.498 122.726 20.6714 123.634 20.6714C124.456 20.6714 125.17 20.4871 125.776 20.1186C126.381 19.75 126.847 19.2622 127.171 18.6551C127.517 18.0481 127.69 17.3652 127.69 16.6064H128.761C128.761 18.8177 128.318 20.563 127.431 21.8421C126.544 23.0996 125.127 23.7283 123.18 23.7283Z" fill="white"/>
<path d="M141.429 23.7283C139.72 23.7283 138.411 23.3055 137.503 22.46C136.616 21.5928 136.173 20.357 136.173 18.7527V2.00474H139.774V18.0698C139.774 18.8286 139.947 19.4031 140.293 19.7934C140.661 20.1836 141.191 20.3787 141.883 20.3787C142.1 20.3787 142.338 20.3354 142.597 20.2486C142.857 20.1619 143.149 19.9993 143.473 19.7608L144.804 22.5251C144.241 22.9153 143.679 23.208 143.116 23.4031C142.554 23.6199 141.991 23.7283 141.429 23.7283ZM133.479 10.1999V7.07791H144.155V10.1999H133.479Z" fill="white"/>
<path d="M149.333 23.3381V5.35433C149.333 3.64159 149.754 2.32994 150.598 1.41937C151.463 0.48712 152.761 0.0209961 154.492 0.0209961C155.054 0.0209961 155.649 0.118557 156.276 0.313679C156.925 0.48712 157.542 0.725602 158.126 1.02912L156.796 3.72831C156.385 3.53319 156.017 3.39227 155.692 3.30555C155.39 3.21883 155.119 3.17547 154.881 3.17547C154.232 3.17547 153.745 3.39227 153.421 3.82587C153.118 4.2378 152.967 4.92072 152.967 5.87465V23.3381H149.333ZM146.542 10.0698V7.07791H157.217V10.0698H146.542Z" fill="white"/>
<path d="M167.341 23.7283C165.719 23.7283 164.269 23.3706 162.993 22.6551C161.738 21.918 160.754 20.9099 160.04 19.6307C159.326 18.3516 158.97 16.8774 158.97 15.208C158.97 13.5386 159.316 12.0644 160.008 10.7852C160.722 9.50609 161.706 8.5088 162.961 7.79335C164.215 7.05622 165.654 6.68766 167.276 6.68766C168.899 6.68766 170.337 7.05622 171.592 7.79335C172.846 8.5088 173.82 9.50609 174.512 10.7852C175.226 12.0644 175.583 13.5386 175.583 15.208C175.583 16.8774 175.237 18.3516 174.544 19.6307C173.852 20.9099 172.879 21.918 171.624 22.6551C170.37 23.3706 168.942 23.7283 167.341 23.7283ZM167.341 20.3787C168.228 20.3787 169.018 20.1619 169.71 19.7283C170.402 19.273 170.943 18.666 171.332 17.9072C171.722 17.1267 171.916 16.227 171.916 15.208C171.916 14.189 171.711 13.3001 171.3 12.5413C170.91 11.7608 170.37 11.1538 169.677 10.7202C168.985 10.2649 168.185 10.0373 167.276 10.0373C166.368 10.0373 165.567 10.2541 164.875 10.6877C164.183 11.1213 163.642 11.7283 163.253 12.5088C162.863 13.2893 162.669 14.189 162.669 15.208C162.669 16.227 162.863 17.1267 163.253 17.9072C163.664 18.666 164.215 19.273 164.908 19.7283C165.621 20.1619 166.433 20.3787 167.341 20.3787Z" fill="white"/>
<path d="M181.133 14.6877C181.133 12.9316 181.468 11.4898 182.139 10.3625C182.81 9.23509 183.675 8.4004 184.735 7.85839C185.816 7.29471 186.941 7.01286 188.109 7.01286V10.4925C187.114 10.4925 186.173 10.6335 185.286 10.9153C184.421 11.1755 183.718 11.6091 183.177 12.2161C182.637 12.8232 182.366 13.6253 182.366 14.6226L181.133 14.6877ZM178.732 23.3381V7.07791H182.366V23.3381H178.732Z" fill="white"/>
<path d="M190.52 23.3381V7.07791H193.927L194.089 9.25677C194.586 8.41124 195.225 7.77167 196.003 7.33807C196.782 6.90446 197.669 6.68766 198.664 6.68766C199.962 6.68766 201.065 6.98034 201.974 7.56571C202.882 8.15108 203.542 9.03996 203.953 10.2324C204.429 9.08332 205.1 8.20528 205.965 7.59823C206.83 6.99118 207.847 6.68766 209.015 6.68766C210.897 6.68766 212.346 7.29471 213.363 8.5088C214.38 9.70121 214.877 11.544 214.855 14.0373V23.3381H211.254V15.0129C211.254 13.7121 211.113 12.7148 210.832 12.021C210.551 11.3055 210.172 10.8069 209.696 10.5251C209.22 10.2432 208.669 10.1023 208.041 10.1023C206.917 10.0806 206.041 10.4817 205.413 11.3055C204.808 12.1294 204.505 13.311 204.505 14.8503V23.3381H200.871V15.0129C200.871 13.7121 200.73 12.7148 200.449 12.021C200.189 11.3055 199.821 10.8069 199.345 10.5251C198.87 10.2432 198.318 10.1023 197.691 10.1023C196.566 10.0806 195.69 10.4817 195.062 11.3055C194.457 12.1294 194.154 13.311 194.154 14.8503V23.3381H190.52Z" fill="white"/>
<path d="M44.156 23.6098V4.29268H37.1797V0.845527H54.8962V4.29268H47.9199V23.6098H44.156Z" fill="white"/>
<path d="M58.4086 14.9594C58.4086 13.2033 58.7439 11.7615 59.4145 10.6341C60.0851 9.50677 60.9504 8.67209 62.0103 8.13008C63.0919 7.5664 64.2168 7.28455 65.3849 7.28455V10.7642C64.3898 10.7642 63.4488 10.9051 62.5619 11.187C61.6967 11.4472 60.9936 11.8808 60.4528 12.4878C59.912 13.0949 59.6416 13.897 59.6416 14.8943L58.4086 14.9594ZM56.0075 23.6098V7.34959H59.6416V23.6098H56.0075Z" fill="white"/>
<path d="M68.0223 23.6098V7.34959H71.624V23.6098H68.0223ZM69.8394 4.26016C69.2553 4.26016 68.747 4.0542 68.3143 3.64228C67.9033 3.20867 67.6978 2.69919 67.6978 2.11382C67.6978 1.52846 67.9033 1.02981 68.3143 0.617886C68.747 0.205962 69.2553 0 69.8394 0C70.4234 0 70.921 0.205962 71.332 0.617886C71.7646 1.02981 71.9809 1.52846 71.9809 2.11382C71.9809 2.69919 71.7646 3.20867 71.332 3.64228C70.921 4.0542 70.4234 4.26016 69.8394 4.26016Z" fill="white"/>
<path d="M81.8126 24C80.731 24 79.7359 23.8374 78.8274 23.5122C77.9189 23.187 77.1401 22.7317 76.4911 22.1463C75.8422 21.5393 75.3447 20.8347 74.9986 20.0325L78.146 18.6341C78.4705 19.2412 78.9464 19.7507 79.5737 20.1626C80.2226 20.5745 80.9365 20.7805 81.7152 20.7805C82.5589 20.7805 83.2295 20.6396 83.727 20.3577C84.2462 20.0542 84.5057 19.6423 84.5057 19.122C84.5057 18.6233 84.3111 18.2439 83.9217 17.9837C83.5323 17.7019 82.9807 17.4743 82.2668 17.3008L80.7418 16.878C79.2059 16.4878 78.0054 15.8699 77.1401 15.0244C76.2748 14.1572 75.8422 13.1707 75.8422 12.065C75.8422 10.439 76.3614 9.18157 77.3997 8.29268C78.4596 7.40379 79.9739 6.95935 81.9424 6.95935C82.9374 6.95935 83.846 7.11111 84.668 7.41463C85.5116 7.69648 86.2363 8.1084 86.842 8.65041C87.4477 9.17073 87.8695 9.78862 88.1074 10.5041L85.0898 11.8699C84.8735 11.3279 84.4625 10.916 83.8568 10.6341C83.2511 10.3306 82.5805 10.1789 81.845 10.1789C81.1095 10.1789 80.5363 10.3415 80.1253 10.6667C79.7143 10.9702 79.5088 11.4038 79.5088 11.9675C79.5088 12.2927 79.6927 12.5962 80.0604 12.878C80.4281 13.1382 80.9581 13.355 81.6503 13.5285L83.5648 13.9837C84.6247 14.2439 85.49 14.6558 86.1606 15.2195C86.8312 15.7615 87.3287 16.3794 87.6532 17.0732C87.9777 17.7453 88.1399 18.4282 88.1399 19.122C88.1399 20.0976 87.8587 20.9539 87.2963 21.6911C86.7555 22.4282 86.0092 23.0027 85.0574 23.4146C84.1056 23.8049 83.024 24 81.8126 24Z" fill="white"/>
<path d="M23.0749 0.51709H0V4.34909H16.4878L0 20.7226V23.4321H2.72899L19.2161 7.05924V23.432H23.0749V0.51709Z" fill="white"/>
</svg>
